<mxfile host="app.diagrams.net" modified="2022-06-02T18:41:12.699Z" agent="5.0 (Windows NT 10.0; Win64; x64) AppleWebKit/537.36 (KHTML, like Gecko) Chrome/102.0.5005.63 Safari/537.36" etag="KNem4LSNXgqDB1F9MxUF" version="18.2.0" type="github">
  <diagram id="44q2uDsoj2Jr73g2Fu_d" name="Page-1">
    <mxGraphModel dx="1617" dy="441" grid="1" gridSize="10" guides="1" tooltips="1" connect="1" arrows="1" fold="1" page="1" pageScale="1" pageWidth="827" pageHeight="1169" math="0" shadow="0">
      <root>
        <mxCell id="0" />
        <mxCell id="1" parent="0" />
        <mxCell id="xyghL1K83STjx0oW8IJl-1" value="Model" style="swimlane;fontStyle=1;align=center;verticalAlign=top;childLayout=stackLayout;horizontal=1;startSize=26;horizontalStack=0;resizeParent=1;resizeParentMax=0;resizeLast=0;collapsible=1;marginBottom=0;" parent="1" vertex="1">
          <mxGeometry x="-280" y="10" width="360" height="298" as="geometry" />
        </mxCell>
        <mxCell id="xyghL1K83STjx0oW8IJl-2" value="- simObjLst&#xa;- warehouses: map&lt;string,shared_ptr&lt;SimObject&gt;&gt;&#xa;- vehicles: map&lt;string,shared_ptr&lt;SimObject&gt;&gt;&#xa;- view&#xa;- time: uint&#xa;+ enum{TROOPER,CHOPPER,TRUCK,WAREHOUSE}" style="text;strokeColor=none;fillColor=none;align=left;verticalAlign=top;spacingLeft=4;spacingRight=4;overflow=hidden;rotatable=0;points=[[0,0.5],[1,0.5]];portConstraint=eastwest;" parent="xyghL1K83STjx0oW8IJl-1" vertex="1">
          <mxGeometry y="26" width="360" height="114" as="geometry" />
        </mxCell>
        <mxCell id="xyghL1K83STjx0oW8IJl-3" value="" style="line;strokeWidth=1;fillColor=none;align=left;verticalAlign=middle;spacingTop=-1;spacingLeft=3;spacingRight=3;rotatable=0;labelPosition=right;points=[];portConstraint=eastwest;" parent="xyghL1K83STjx0oW8IJl-1" vertex="1">
          <mxGeometry y="140" width="360" height="8" as="geometry" />
        </mxCell>
        <mxCell id="xyghL1K83STjx0oW8IJl-4" value="- Model()&#xa;+ static getInstance()&#xa;+ addSimObject(SimObject obj)&#xa;+ getSimObjLst()&#xa;+ update()&#xa;+ attach()&#xa;+ detach()&#xa;+ inRadius(type,Point,radius):weak_ptr&lt;SimObject&gt;" style="text;strokeColor=none;fillColor=none;align=left;verticalAlign=top;spacingLeft=4;spacingRight=4;overflow=hidden;rotatable=0;points=[[0,0.5],[1,0.5]];portConstraint=eastwest;" parent="xyghL1K83STjx0oW8IJl-1" vertex="1">
          <mxGeometry y="148" width="360" height="150" as="geometry" />
        </mxCell>
        <mxCell id="xyghL1K83STjx0oW8IJl-15" value="" style="endArrow=block;startArrow=block;endFill=1;startFill=1;html=1;rounded=0;" parent="1" source="xyghL1K83STjx0oW8IJl-1" target="xyghL1K83STjx0oW8IJl-16" edge="1">
          <mxGeometry width="160" relative="1" as="geometry">
            <mxPoint x="200" y="140" as="sourcePoint" />
            <mxPoint x="110" y="300" as="targetPoint" />
          </mxGeometry>
        </mxCell>
        <mxCell id="xyghL1K83STjx0oW8IJl-16" value="Controller" style="swimlane;fontStyle=1;align=center;verticalAlign=top;childLayout=stackLayout;horizontal=1;startSize=26;horizontalStack=0;resizeParent=1;resizeParentMax=0;resizeLast=0;collapsible=1;marginBottom=0;" parent="1" vertex="1">
          <mxGeometry x="-210" y="330" width="110" height="130" as="geometry" />
        </mxCell>
        <mxCell id="xyghL1K83STjx0oW8IJl-17" value="- view" style="text;strokeColor=none;fillColor=none;align=left;verticalAlign=top;spacingLeft=4;spacingRight=4;overflow=hidden;rotatable=0;points=[[0,0.5],[1,0.5]];portConstraint=eastwest;" parent="xyghL1K83STjx0oW8IJl-16" vertex="1">
          <mxGeometry y="26" width="110" height="26" as="geometry" />
        </mxCell>
        <mxCell id="xyghL1K83STjx0oW8IJl-18" value="" style="line;strokeWidth=1;fillColor=none;align=left;verticalAlign=middle;spacingTop=-1;spacingLeft=3;spacingRight=3;rotatable=0;labelPosition=right;points=[];portConstraint=eastwest;" parent="xyghL1K83STjx0oW8IJl-16" vertex="1">
          <mxGeometry y="52" width="110" height="8" as="geometry" />
        </mxCell>
        <mxCell id="xyghL1K83STjx0oW8IJl-19" value="+ run()&#xa;- getCmd()&#xa;- parseCmd()&#xa;- executeCmd()" style="text;strokeColor=none;fillColor=none;align=left;verticalAlign=top;spacingLeft=4;spacingRight=4;overflow=hidden;rotatable=0;points=[[0,0.5],[1,0.5]];portConstraint=eastwest;" parent="xyghL1K83STjx0oW8IJl-16" vertex="1">
          <mxGeometry y="60" width="110" height="70" as="geometry" />
        </mxCell>
        <mxCell id="xyghL1K83STjx0oW8IJl-20" value="" style="endArrow=block;startArrow=block;endFill=1;startFill=1;html=1;rounded=0;" parent="1" source="xyghL1K83STjx0oW8IJl-1" target="xyghL1K83STjx0oW8IJl-21" edge="1">
          <mxGeometry width="160" relative="1" as="geometry">
            <mxPoint x="220" y="217.69230769230762" as="sourcePoint" />
            <mxPoint x="480" y="280" as="targetPoint" />
          </mxGeometry>
        </mxCell>
        <mxCell id="xyghL1K83STjx0oW8IJl-21" value="View" style="swimlane;fontStyle=1;align=center;verticalAlign=top;childLayout=stackLayout;horizontal=1;startSize=26;horizontalStack=0;resizeParent=1;resizeParentMax=0;resizeLast=0;collapsible=1;marginBottom=0;" parent="1" vertex="1">
          <mxGeometry x="10" y="320" width="120" height="180" as="geometry" />
        </mxCell>
        <mxCell id="xyghL1K83STjx0oW8IJl-22" value="- size&#xa;- scale&#xa;- origin&#xa;- objLocation" style="text;strokeColor=none;fillColor=none;align=left;verticalAlign=top;spacingLeft=4;spacingRight=4;overflow=hidden;rotatable=0;points=[[0,0.5],[1,0.5]];portConstraint=eastwest;" parent="xyghL1K83STjx0oW8IJl-21" vertex="1">
          <mxGeometry y="26" width="120" height="74" as="geometry" />
        </mxCell>
        <mxCell id="xyghL1K83STjx0oW8IJl-23" value="" style="line;strokeWidth=1;fillColor=none;align=left;verticalAlign=middle;spacingTop=-1;spacingLeft=3;spacingRight=3;rotatable=0;labelPosition=right;points=[];portConstraint=eastwest;" parent="xyghL1K83STjx0oW8IJl-21" vertex="1">
          <mxGeometry y="100" width="120" height="8" as="geometry" />
        </mxCell>
        <mxCell id="xyghL1K83STjx0oW8IJl-24" value="+ setSize(uint size)&#xa;+ draw()&#xa;+ clear()" style="text;strokeColor=none;fillColor=none;align=left;verticalAlign=top;spacingLeft=4;spacingRight=4;overflow=hidden;rotatable=0;points=[[0,0.5],[1,0.5]];portConstraint=eastwest;" parent="xyghL1K83STjx0oW8IJl-21" vertex="1">
          <mxGeometry y="108" width="120" height="72" as="geometry" />
        </mxCell>
        <mxCell id="xyghL1K83STjx0oW8IJl-28" value="SimObject" style="swimlane;fontStyle=1;align=center;verticalAlign=top;childLayout=stackLayout;horizontal=1;startSize=26;horizontalStack=0;resizeParent=1;resizeParentMax=0;resizeLast=0;collapsible=1;marginBottom=0;" parent="1" vertex="1">
          <mxGeometry x="310" y="30" width="200" height="130" as="geometry" />
        </mxCell>
        <mxCell id="xyghL1K83STjx0oW8IJl-29" value="- name" style="text;strokeColor=none;fillColor=none;align=left;verticalAlign=top;spacingLeft=4;spacingRight=4;overflow=hidden;rotatable=0;points=[[0,0.5],[1,0.5]];portConstraint=eastwest;" parent="xyghL1K83STjx0oW8IJl-28" vertex="1">
          <mxGeometry y="26" width="200" height="26" as="geometry" />
        </mxCell>
        <mxCell id="xyghL1K83STjx0oW8IJl-30" value="" style="line;strokeWidth=1;fillColor=none;align=left;verticalAlign=middle;spacingTop=-1;spacingLeft=3;spacingRight=3;rotatable=0;labelPosition=right;points=[];portConstraint=eastwest;" parent="xyghL1K83STjx0oW8IJl-28" vertex="1">
          <mxGeometry y="52" width="200" height="8" as="geometry" />
        </mxCell>
        <mxCell id="xyghL1K83STjx0oW8IJl-31" value="+ getLocation()&#xa;+ getName()&#xa;+ update()&#xa;+ broadcastState()" style="text;strokeColor=none;fillColor=none;align=left;verticalAlign=top;spacingLeft=4;spacingRight=4;overflow=hidden;rotatable=0;points=[[0,0.5],[1,0.5]];portConstraint=eastwest;" parent="xyghL1K83STjx0oW8IJl-28" vertex="1">
          <mxGeometry y="60" width="200" height="70" as="geometry" />
        </mxCell>
        <mxCell id="xyghL1K83STjx0oW8IJl-33" value="Relation" style="endArrow=open;html=1;endSize=12;startArrow=diamondThin;startSize=14;startFill=0;edgeStyle=orthogonalEdgeStyle;rounded=0;" parent="1" source="xyghL1K83STjx0oW8IJl-28" target="xyghL1K83STjx0oW8IJl-1" edge="1">
          <mxGeometry relative="1" as="geometry">
            <mxPoint x="450" y="270" as="sourcePoint" />
            <mxPoint x="610" y="270" as="targetPoint" />
          </mxGeometry>
        </mxCell>
        <mxCell id="xyghL1K83STjx0oW8IJl-34" value="0..n" style="edgeLabel;resizable=0;html=1;align=left;verticalAlign=top;" parent="xyghL1K83STjx0oW8IJl-33" connectable="0" vertex="1">
          <mxGeometry x="-1" relative="1" as="geometry">
            <mxPoint x="-20" y="5" as="offset" />
          </mxGeometry>
        </mxCell>
        <mxCell id="xyghL1K83STjx0oW8IJl-35" value="1" style="edgeLabel;resizable=0;html=1;align=right;verticalAlign=top;" parent="xyghL1K83STjx0oW8IJl-33" connectable="0" vertex="1">
          <mxGeometry x="1" relative="1" as="geometry">
            <mxPoint x="14" as="offset" />
          </mxGeometry>
        </mxCell>
        <mxCell id="xyghL1K83STjx0oW8IJl-36" value="" style="endArrow=block;dashed=1;endFill=0;endSize=12;html=1;rounded=0;" parent="1" source="xyghL1K83STjx0oW8IJl-37" target="xyghL1K83STjx0oW8IJl-28" edge="1">
          <mxGeometry width="160" relative="1" as="geometry">
            <mxPoint x="510" y="260" as="sourcePoint" />
            <mxPoint x="670" y="260" as="targetPoint" />
          </mxGeometry>
        </mxCell>
        <mxCell id="xyghL1K83STjx0oW8IJl-37" value="Warehouse" style="swimlane;fontStyle=1;align=center;verticalAlign=top;childLayout=stackLayout;horizontal=1;startSize=26;horizontalStack=0;resizeParent=1;resizeParentMax=0;resizeLast=0;collapsible=1;marginBottom=0;" parent="1" vertex="1">
          <mxGeometry x="190" y="210" width="160" height="86" as="geometry" />
        </mxCell>
        <mxCell id="xyghL1K83STjx0oW8IJl-38" value="- inventory: uint" style="text;strokeColor=none;fillColor=none;align=left;verticalAlign=top;spacingLeft=4;spacingRight=4;overflow=hidden;rotatable=0;points=[[0,0.5],[1,0.5]];portConstraint=eastwest;" parent="xyghL1K83STjx0oW8IJl-37" vertex="1">
          <mxGeometry y="26" width="160" height="26" as="geometry" />
        </mxCell>
        <mxCell id="xyghL1K83STjx0oW8IJl-39" value="" style="line;strokeWidth=1;fillColor=none;align=left;verticalAlign=middle;spacingTop=-1;spacingLeft=3;spacingRight=3;rotatable=0;labelPosition=right;points=[];portConstraint=eastwest;" parent="xyghL1K83STjx0oW8IJl-37" vertex="1">
          <mxGeometry y="52" width="160" height="8" as="geometry" />
        </mxCell>
        <mxCell id="xyghL1K83STjx0oW8IJl-40" value="+ update()" style="text;strokeColor=none;fillColor=none;align=left;verticalAlign=top;spacingLeft=4;spacingRight=4;overflow=hidden;rotatable=0;points=[[0,0.5],[1,0.5]];portConstraint=eastwest;" parent="xyghL1K83STjx0oW8IJl-37" vertex="1">
          <mxGeometry y="60" width="160" height="26" as="geometry" />
        </mxCell>
        <mxCell id="xyghL1K83STjx0oW8IJl-41" value="" style="endArrow=block;dashed=1;endFill=0;endSize=12;html=1;rounded=0;" parent="1" source="xyghL1K83STjx0oW8IJl-42" target="xyghL1K83STjx0oW8IJl-28" edge="1">
          <mxGeometry width="160" relative="1" as="geometry">
            <mxPoint x="700" y="280" as="sourcePoint" />
            <mxPoint x="670" y="260" as="targetPoint" />
          </mxGeometry>
        </mxCell>
        <mxCell id="xyghL1K83STjx0oW8IJl-42" value="Vehicle" style="swimlane;fontStyle=1;align=center;verticalAlign=top;childLayout=stackLayout;horizontal=1;startSize=26;horizontalStack=0;resizeParent=1;resizeParentMax=0;resizeLast=0;collapsible=1;marginBottom=0;" parent="1" vertex="1">
          <mxGeometry x="410" y="310" width="160" height="60" as="geometry" />
        </mxCell>
        <mxCell id="xyghL1K83STjx0oW8IJl-44" value="" style="line;strokeWidth=1;fillColor=none;align=left;verticalAlign=middle;spacingTop=-1;spacingLeft=3;spacingRight=3;rotatable=0;labelPosition=right;points=[];portConstraint=eastwest;" parent="xyghL1K83STjx0oW8IJl-42" vertex="1">
          <mxGeometry y="26" width="160" height="8" as="geometry" />
        </mxCell>
        <mxCell id="xyghL1K83STjx0oW8IJl-45" value="+ update()" style="text;strokeColor=none;fillColor=none;align=left;verticalAlign=top;spacingLeft=4;spacingRight=4;overflow=hidden;rotatable=0;points=[[0,0.5],[1,0.5]];portConstraint=eastwest;" parent="xyghL1K83STjx0oW8IJl-42" vertex="1">
          <mxGeometry y="34" width="160" height="26" as="geometry" />
        </mxCell>
        <mxCell id="xyghL1K83STjx0oW8IJl-47" value="Extends" style="endArrow=block;endSize=16;endFill=0;html=1;rounded=0;" parent="1" source="xyghL1K83STjx0oW8IJl-42" target="xyghL1K83STjx0oW8IJl-48" edge="1">
          <mxGeometry width="160" relative="1" as="geometry">
            <mxPoint x="430" y="190" as="sourcePoint" />
            <mxPoint x="590" y="130" as="targetPoint" />
          </mxGeometry>
        </mxCell>
        <mxCell id="xyghL1K83STjx0oW8IJl-48" value="Track_base" style="swimlane;fontStyle=1;align=center;verticalAlign=top;childLayout=stackLayout;horizontal=1;startSize=26;horizontalStack=0;resizeParent=1;resizeParentMax=0;resizeLast=0;collapsible=1;marginBottom=0;" parent="1" vertex="1">
          <mxGeometry x="560" y="30" width="270" height="230" as="geometry" />
        </mxCell>
        <mxCell id="xyghL1K83STjx0oW8IJl-49" value="- course&#xa;- speed&#xa;- curLoc:Point&#xa;- target/position:Point&#xa;- status&#xa;+ enum {STOP,PARKED,OFFROAD,MOVING}" style="text;strokeColor=none;fillColor=none;align=left;verticalAlign=top;spacingLeft=4;spacingRight=4;overflow=hidden;rotatable=0;points=[[0,0.5],[1,0.5]];portConstraint=eastwest;" parent="xyghL1K83STjx0oW8IJl-48" vertex="1">
          <mxGeometry y="26" width="270" height="94" as="geometry" />
        </mxCell>
        <mxCell id="xyghL1K83STjx0oW8IJl-50" value="" style="line;strokeWidth=1;fillColor=none;align=left;verticalAlign=middle;spacingTop=-1;spacingLeft=3;spacingRight=3;rotatable=0;labelPosition=right;points=[];portConstraint=eastwest;" parent="xyghL1K83STjx0oW8IJl-48" vertex="1">
          <mxGeometry y="120" width="270" height="8" as="geometry" />
        </mxCell>
        <mxCell id="xyghL1K83STjx0oW8IJl-51" value="+ getPosition()&#xa;+ getCourse()&#xa;+ virtual setStatus(status)&#xa;+ virtual updateData()" style="text;strokeColor=none;fillColor=none;align=left;verticalAlign=top;spacingLeft=4;spacingRight=4;overflow=hidden;rotatable=0;points=[[0,0.5],[1,0.5]];portConstraint=eastwest;" parent="xyghL1K83STjx0oW8IJl-48" vertex="1">
          <mxGeometry y="128" width="270" height="102" as="geometry" />
        </mxCell>
        <mxCell id="xyghL1K83STjx0oW8IJl-52" value="" style="endArrow=block;dashed=1;endFill=0;endSize=12;html=1;rounded=0;" parent="1" source="Z22mOZkXwCtcEA-yf7Ti-4" target="xyghL1K83STjx0oW8IJl-42" edge="1">
          <mxGeometry width="160" relative="1" as="geometry">
            <mxPoint x="379.2857142857142" y="460" as="sourcePoint" />
            <mxPoint x="550" y="330" as="targetPoint" />
          </mxGeometry>
        </mxCell>
        <mxCell id="xyghL1K83STjx0oW8IJl-57" value="" style="endArrow=block;dashed=1;endFill=0;endSize=12;html=1;rounded=0;" parent="1" source="Z22mOZkXwCtcEA-yf7Ti-12" target="xyghL1K83STjx0oW8IJl-42" edge="1">
          <mxGeometry width="160" relative="1" as="geometry">
            <mxPoint x="490" y="460" as="sourcePoint" />
            <mxPoint x="675" y="376" as="targetPoint" />
          </mxGeometry>
        </mxCell>
        <mxCell id="xyghL1K83STjx0oW8IJl-61" value="" style="endArrow=block;dashed=1;endFill=0;endSize=12;html=1;rounded=0;" parent="1" source="Z22mOZkXwCtcEA-yf7Ti-8" target="xyghL1K83STjx0oW8IJl-42" edge="1">
          <mxGeometry width="160" relative="1" as="geometry">
            <mxPoint x="595.1094890510949" y="460" as="sourcePoint" />
            <mxPoint x="660" y="390" as="targetPoint" />
          </mxGeometry>
        </mxCell>
        <mxCell id="Z22mOZkXwCtcEA-yf7Ti-4" value="Truck" style="swimlane;fontStyle=1;align=center;verticalAlign=top;childLayout=stackLayout;horizontal=1;startSize=26;horizontalStack=0;resizeParent=1;resizeParentMax=0;resizeLast=0;collapsible=1;marginBottom=0;" vertex="1" parent="1">
          <mxGeometry x="200" y="460" width="230" height="170" as="geometry" />
        </mxCell>
        <mxCell id="Z22mOZkXwCtcEA-yf7Ti-5" value="- route: list&lt;link&gt;&#xa;- link {Warehouse,arrival,departure,qty}&#xa;- numCrates" style="text;strokeColor=none;fillColor=none;align=left;verticalAlign=top;spacingLeft=4;spacingRight=4;overflow=hidden;rotatable=0;points=[[0,0.5],[1,0.5]];portConstraint=eastwest;" vertex="1" parent="Z22mOZkXwCtcEA-yf7Ti-4">
          <mxGeometry y="26" width="230" height="64" as="geometry" />
        </mxCell>
        <mxCell id="Z22mOZkXwCtcEA-yf7Ti-6" value="" style="line;strokeWidth=1;fillColor=none;align=left;verticalAlign=middle;spacingTop=-1;spacingLeft=3;spacingRight=3;rotatable=0;labelPosition=right;points=[];portConstraint=eastwest;" vertex="1" parent="Z22mOZkXwCtcEA-yf7Ti-4">
          <mxGeometry y="90" width="230" height="8" as="geometry" />
        </mxCell>
        <mxCell id="Z22mOZkXwCtcEA-yf7Ti-7" value="+ Truck(name:string)&#xa;+ init(filepath:string)&#xa;+ attack()&#xa;+ update()" style="text;strokeColor=none;fillColor=none;align=left;verticalAlign=top;spacingLeft=4;spacingRight=4;overflow=hidden;rotatable=0;points=[[0,0.5],[1,0.5]];portConstraint=eastwest;" vertex="1" parent="Z22mOZkXwCtcEA-yf7Ti-4">
          <mxGeometry y="98" width="230" height="72" as="geometry" />
        </mxCell>
        <mxCell id="Z22mOZkXwCtcEA-yf7Ti-8" value="Trooper" style="swimlane;fontStyle=1;align=center;verticalAlign=top;childLayout=stackLayout;horizontal=1;startSize=26;horizontalStack=0;resizeParent=1;resizeParentMax=0;resizeLast=0;collapsible=1;marginBottom=0;" vertex="1" parent="1">
          <mxGeometry x="680" y="477" width="240" height="130" as="geometry" />
        </mxCell>
        <mxCell id="Z22mOZkXwCtcEA-yf7Ti-9" value="route:list&lt;weak_ptr&lt;Warehouse&gt;&gt;" style="text;strokeColor=none;fillColor=none;align=left;verticalAlign=top;spacingLeft=4;spacingRight=4;overflow=hidden;rotatable=0;points=[[0,0.5],[1,0.5]];portConstraint=eastwest;" vertex="1" parent="Z22mOZkXwCtcEA-yf7Ti-8">
          <mxGeometry y="26" width="240" height="34" as="geometry" />
        </mxCell>
        <mxCell id="Z22mOZkXwCtcEA-yf7Ti-10" value="" style="line;strokeWidth=1;fillColor=none;align=left;verticalAlign=middle;spacingTop=-1;spacingLeft=3;spacingRight=3;rotatable=0;labelPosition=right;points=[];portConstraint=eastwest;" vertex="1" parent="Z22mOZkXwCtcEA-yf7Ti-8">
          <mxGeometry y="60" width="240" height="8" as="geometry" />
        </mxCell>
        <mxCell id="Z22mOZkXwCtcEA-yf7Ti-11" value="+ buildRoute(Warehouse start)&#xa;" style="text;strokeColor=none;fillColor=none;align=left;verticalAlign=top;spacingLeft=4;spacingRight=4;overflow=hidden;rotatable=0;points=[[0,0.5],[1,0.5]];portConstraint=eastwest;" vertex="1" parent="Z22mOZkXwCtcEA-yf7Ti-8">
          <mxGeometry y="68" width="240" height="62" as="geometry" />
        </mxCell>
        <mxCell id="Z22mOZkXwCtcEA-yf7Ti-12" value="Chopper" style="swimlane;fontStyle=1;align=center;verticalAlign=top;childLayout=stackLayout;horizontal=1;startSize=26;horizontalStack=0;resizeParent=1;resizeParentMax=0;resizeLast=0;collapsible=1;marginBottom=0;" vertex="1" parent="1">
          <mxGeometry x="450" y="470" width="160" height="100" as="geometry" />
        </mxCell>
        <mxCell id="Z22mOZkXwCtcEA-yf7Ti-13" value="- " style="text;strokeColor=none;fillColor=none;align=left;verticalAlign=top;spacingLeft=4;spacingRight=4;overflow=hidden;rotatable=0;points=[[0,0.5],[1,0.5]];portConstraint=eastwest;" vertex="1" parent="Z22mOZkXwCtcEA-yf7Ti-12">
          <mxGeometry y="26" width="160" height="26" as="geometry" />
        </mxCell>
        <mxCell id="Z22mOZkXwCtcEA-yf7Ti-14" value="" style="line;strokeWidth=1;fillColor=none;align=left;verticalAlign=middle;spacingTop=-1;spacingLeft=3;spacingRight=3;rotatable=0;labelPosition=right;points=[];portConstraint=eastwest;" vertex="1" parent="Z22mOZkXwCtcEA-yf7Ti-12">
          <mxGeometry y="52" width="160" height="8" as="geometry" />
        </mxCell>
        <mxCell id="Z22mOZkXwCtcEA-yf7Ti-15" value="+ attack()&#xa;+ update()" style="text;strokeColor=none;fillColor=none;align=left;verticalAlign=top;spacingLeft=4;spacingRight=4;overflow=hidden;rotatable=0;points=[[0,0.5],[1,0.5]];portConstraint=eastwest;" vertex="1" parent="Z22mOZkXwCtcEA-yf7Ti-12">
          <mxGeometry y="60" width="160" height="40" as="geometry" />
        </mxCell>
      </root>
    </mxGraphModel>
  </diagram>
</mxfile>
